<svg id="svg" version="1.1" width="400" height="400" viewBox="0 0 400 400" xmlns="http://www.w3.org/2000/svg" xmlns:xlink="http://www.w3.org/1999/xlink" ><g id="svgg"><path id="path0" d="M0.000 200.000 L 0.000 400.000 200.000 400.000 L 400.000 400.000 400.000 200.000 L 400.000 0.000 200.000 0.000 L 0.000 0.000 0.000 200.000 M209.800 9.197 C 218.211 9.665,226.160 10.368,228.400 10.843 C 229.390 11.053,231.820 11.486,233.800 11.806 C 238.073 12.496,245.576 14.172,249.167 15.238 C 250.579 15.657,251.941 16.000,252.194 16.000 C 252.996 16.000,269.803 21.763,272.600 22.997 C 279.746 26.151,285.463 28.785,287.600 29.909 C 291.858 32.150,296.115 34.509,297.475 35.382 C 298.176 35.832,299.514 36.650,300.447 37.200 C 322.021 49.913,345.601 72.765,360.090 95.000 C 369.157 108.914,375.234 121.226,381.217 137.800 C 383.822 145.016,387.433 158.728,388.221 164.400 C 388.358 165.390,388.714 167.100,389.011 168.200 C 389.308 169.300,389.828 172.990,390.167 176.400 C 390.506 179.810,390.998 184.760,391.261 187.400 C 391.943 194.258,391.851 207.769,391.066 216.000 C 390.166 225.428,389.287 232.735,388.996 233.207 C 388.864 233.420,388.586 234.720,388.377 236.097 C 387.874 239.422,386.173 246.933,384.913 251.400 C 382.188 261.062,379.945 267.417,375.949 276.800 C 369.265 292.496,357.377 311.888,347.557 323.115 C 347.030 323.717,345.523 325.467,344.206 327.004 C 334.806 337.982,314.143 356.042,305.994 360.403 C 305.475 360.681,304.859 361.069,304.625 361.265 C 304.391 361.461,303.300 362.183,302.200 362.871 C 301.100 363.558,299.570 364.521,298.800 365.011 C 295.046 367.401,284.171 373.097,279.000 375.382 C 277.680 375.965,276.060 376.696,275.400 377.006 C 272.964 378.151,265.229 381.060,262.000 382.046 C 260.570 382.483,259.040 383.012,258.600 383.223 C 255.780 384.571,240.029 388.332,231.000 389.813 C 196.534 395.466,161.195 391.546,128.800 378.475 C 126.930 377.720,124.590 376.779,123.600 376.382 C 122.610 375.986,120.129 374.838,118.086 373.831 C 116.044 372.824,114.289 372.000,114.188 372.000 C 113.928 372.000,103.318 366.107,101.500 364.952 C 100.675 364.429,99.280 363.550,98.400 363.000 C 93.618 360.012,86.527 355.047,82.989 352.212 C 81.883 351.325,80.278 350.060,79.422 349.400 C 64.972 338.252,44.083 314.122,35.787 298.993 C 35.543 298.549,34.605 296.920,33.701 295.372 C 31.374 291.389,26.439 281.422,24.108 276.000 C 22.324 271.848,21.601 269.993,19.199 263.400 C 18.469 261.395,16.648 255.492,15.376 251.000 C 14.379 247.483,12.881 240.798,12.014 236.000 C 11.597 233.690,11.068 230.900,10.838 229.800 C 6.699 209.984,8.962 172.732,15.746 149.000 C 17.883 141.523,18.721 138.997,21.980 130.200 C 33.077 100.250,59.833 65.231,85.546 47.000 C 86.477 46.340,87.884 45.306,88.672 44.702 C 90.082 43.622,94.474 40.684,98.800 37.927 C 113.445 28.595,130.860 20.959,150.000 15.477 C 153.428 14.496,160.960 12.829,165.800 11.981 C 168.220 11.557,171.100 11.037,172.200 10.824 C 179.590 9.397,198.608 8.574,209.800 9.197 M131.000 106.678 C 106.894 109.861,89.476 125.117,83.136 148.600 L 81.840 153.400 81.694 192.800 C 81.497 246.172,81.671 249.131,85.594 259.153 C 92.530 276.870,108.747 289.614,128.400 292.792 C 135.323 293.911,314.260 294.083,315.371 292.971 C 316.212 292.131,316.333 260.202,315.500 259.078 C 315.034 258.450,308.836 258.397,224.200 258.302 L 133.400 258.200 130.492 256.915 C 123.597 253.866,119.127 248.400,117.782 241.372 C 116.925 236.895,116.917 163.148,117.773 158.675 C 119.408 150.132,126.226 143.355,134.545 142.004 C 136.101 141.752,160.169 141.605,200.238 141.603 C 261.328 141.600,263.499 141.575,264.148 140.858 C 264.744 140.199,265.082 123.607,264.812 108.329 C 264.776 106.284,268.777 106.395,197.871 106.460 C 161.752 106.493,131.660 106.591,131.000 106.678 M294.600 106.642 C 294.160 106.752,293.440 107.000,293.000 107.195 C 292.560 107.389,291.333 107.915,290.274 108.363 C 284.179 110.942,279.598 119.472,280.738 126.120 C 283.729 143.565,306.556 147.111,314.723 131.400 C 315.963 129.014,316.478 121.572,315.604 118.656 C 313.207 110.656,302.678 104.634,294.600 106.642 M280.652 153.700 C 280.519 154.195,280.408 174.162,280.405 198.071 C 280.400 245.376,280.277 242.786,282.529 242.809 C 297.010 242.955,315.039 242.699,315.470 242.342 C 316.110 241.811,316.258 154.227,315.620 153.218 C 315.324 152.750,315.072 152.728,314.326 153.105 C 304.921 157.858,294.260 158.312,284.920 154.358 C 280.582 152.521,280.953 152.578,280.652 153.700 M137.200 157.431 C 132.464 158.946,132.800 155.689,132.800 200.034 C 132.800 243.041,132.626 240.606,135.813 242.126 C 138.222 243.275,263.248 243.152,264.400 242.000 C 265.174 241.226,265.200 240.667,265.200 225.086 L 265.200 208.972 264.055 208.296 C 262.997 207.671,259.380 207.620,216.715 207.620 C 191.308 207.621,170.248 207.516,169.914 207.389 C 167.873 206.605,167.710 193.996,169.725 192.714 C 169.986 192.548,191.044 192.409,216.520 192.406 C 257.249 192.401,262.982 192.326,264.020 191.790 L 265.200 191.179 265.200 175.048 L 265.200 158.917 264.219 157.858 L 263.238 156.800 201.119 156.828 C 148.233 156.852,138.732 156.941,137.200 157.431 " stroke="none" fill="#f8f8f8" fill-rule="evenodd"></path><path id="path1" d="M190.200 9.220 C 183.109 9.583,174.791 10.324,172.200 10.824 C 171.100 11.037,168.220 11.557,165.800 11.981 C 144.386 15.732,121.494 24.292,102.400 35.689 C 98.733 37.878,90.664 43.176,88.672 44.702 C 87.884 45.306,86.477 46.340,85.546 47.000 C 59.833 65.231,33.077 100.250,21.980 130.200 C 18.721 138.997,17.883 141.523,15.746 149.000 C 13.096 158.269,10.752 170.769,9.633 181.600 C 8.313 194.372,8.976 220.886,10.838 229.800 C 11.068 230.900,11.597 233.690,12.014 236.000 C 12.881 240.798,14.379 247.483,15.376 251.000 C 16.648 255.492,18.469 261.395,19.199 263.400 C 21.601 269.993,22.324 271.848,24.108 276.000 C 26.439 281.422,31.374 291.389,33.701 295.372 C 34.605 296.920,35.543 298.549,35.787 298.993 C 44.083 314.122,64.972 338.252,79.422 349.400 C 80.278 350.060,81.883 351.325,82.989 352.212 C 86.527 355.047,93.618 360.012,98.400 363.000 C 99.280 363.550,100.675 364.429,101.500 364.952 C 103.318 366.107,113.928 372.000,114.188 372.000 C 114.289 372.000,116.044 372.824,118.086 373.831 C 120.129 374.838,122.610 375.986,123.600 376.382 C 124.590 376.779,126.930 377.720,128.800 378.475 C 161.195 391.546,196.534 395.466,231.000 389.813 C 240.029 388.332,255.780 384.571,258.600 383.223 C 259.040 383.012,260.570 382.483,262.000 382.046 C 265.229 381.060,272.964 378.151,275.400 377.006 C 276.060 376.696,277.680 375.965,279.000 375.382 C 284.171 373.097,295.046 367.401,298.800 365.011 C 299.570 364.521,301.100 363.558,302.200 362.871 C 303.300 362.183,304.391 361.461,304.625 361.265 C 304.859 361.069,305.475 360.681,305.994 360.403 C 314.143 356.042,334.806 337.982,344.206 327.004 C 345.523 325.467,347.030 323.717,347.557 323.115 C 352.118 317.900,360.243 306.346,365.219 298.000 C 371.972 286.672,378.687 271.619,382.706 258.800 C 385.342 250.394,387.551 241.550,388.377 236.097 C 388.586 234.720,388.864 233.420,388.996 233.207 C 389.287 232.735,390.166 225.428,391.066 216.000 C 391.851 207.769,391.943 194.258,391.261 187.400 C 390.998 184.760,390.506 179.810,390.167 176.400 C 389.828 172.990,389.308 169.300,389.011 168.200 C 388.714 167.100,388.358 165.390,388.221 164.400 C 387.433 158.728,383.822 145.016,381.217 137.800 C 375.234 121.226,369.157 108.914,360.090 95.000 C 345.601 72.765,322.021 49.913,300.447 37.200 C 299.514 36.650,298.176 35.832,297.475 35.382 C 296.115 34.509,291.858 32.150,287.600 29.909 C 285.463 28.785,279.746 26.151,272.600 22.997 C 269.803 21.763,252.996 16.000,252.194 16.000 C 251.941 16.000,250.579 15.657,249.167 15.238 C 245.576 14.172,238.073 12.496,233.800 11.806 C 231.820 11.486,229.390 11.053,228.400 10.843 C 221.684 9.421,202.343 8.599,190.200 9.220 M264.171 107.029 C 264.517 107.374,264.805 107.959,264.812 108.329 C 265.082 123.607,264.744 140.199,264.148 140.858 C 263.499 141.575,261.328 141.600,200.238 141.603 C 160.169 141.605,136.101 141.752,134.545 142.004 C 126.226 143.355,119.408 150.132,117.773 158.675 C 116.917 163.148,116.925 236.895,117.782 241.372 C 119.127 248.400,123.597 253.866,130.492 256.915 L 133.400 258.200 224.200 258.302 C 308.836 258.397,315.034 258.450,315.500 259.078 C 316.333 260.202,316.212 292.131,315.371 292.971 C 314.260 294.083,135.323 293.911,128.400 292.792 C 108.747 289.614,92.530 276.870,85.594 259.153 C 81.671 249.131,81.497 246.172,81.694 192.800 L 81.840 153.400 83.136 148.600 C 89.476 125.117,106.894 109.861,131.000 106.678 C 135.363 106.102,263.582 106.440,264.171 107.029 M306.042 108.131 C 320.775 115.156,319.226 135.779,303.600 140.652 C 288.812 145.264,275.757 130.035,282.481 116.016 C 283.683 113.509,287.901 109.367,290.274 108.363 C 291.333 107.915,292.560 107.389,293.000 107.195 C 296.061 105.842,302.161 106.280,306.042 108.131 M284.920 154.358 C 294.260 158.312,304.921 157.858,314.326 153.105 C 315.072 152.728,315.324 152.750,315.620 153.218 C 316.258 154.227,316.110 241.811,315.470 242.342 C 315.039 242.699,297.010 242.955,282.529 242.809 C 280.277 242.786,280.400 245.376,280.405 198.071 C 280.410 158.716,280.497 152.800,281.067 152.800 C 281.163 152.800,282.897 153.501,284.920 154.358 M264.219 157.858 L 265.200 158.917 265.200 175.048 L 265.200 191.179 264.020 191.790 C 262.982 192.326,257.249 192.401,216.520 192.406 C 191.044 192.409,169.986 192.548,169.725 192.714 C 167.710 193.996,167.873 206.605,169.914 207.389 C 170.248 207.516,191.308 207.621,216.715 207.620 C 259.380 207.620,262.997 207.671,264.055 208.296 L 265.200 208.972 265.200 225.086 C 265.200 240.667,265.174 241.226,264.400 242.000 C 263.607 242.793,263.067 242.800,200.414 242.800 C 129.353 242.800,135.179 243.062,133.600 239.800 C 132.444 237.412,132.335 162.915,133.483 160.460 C 135.295 156.589,130.246 156.860,201.119 156.828 L 263.238 156.800 264.219 157.858 " stroke="none" fill="#1c1b1b" fill-rule="evenodd"></path></g></svg>