<?xml version="1.0" encoding="iso-8859-1"?>
<!-- Generator: Adobe Illustrator 19.0.0, SVG Export Plug-In . SVG Version: 6.00 Build 0)  -->
<svg version="1.1" id="Layer_1" xmlns="http://www.w3.org/2000/svg" xmlns:xlink="http://www.w3.org/1999/xlink" x="0px" y="0px"
	 viewBox="0 0 485 485" style="enable-background:new 0 0 485 485;" xml:space="preserve">
<g>
	<path d="M240.647,344.474c15.111-12.097,25.275-29.502,25.141-51.629c0-31.435-20.551-52.526-48.524-60.083v-0.719
		c27.614-10.164,40.248-30.359,40.248-52.167c0-21.948-12.275-38.634-29.321-47.761c-17.584-10.389-38.316-13.716-71.867-13.716
		c-27.567,0-56.932,2.114-71.323,5.081v239.432c12.275,1.935,32.513,3.689,59.721,3.689
		C193.204,366.601,222.884,358.731,240.647,344.474z M139.64,160.042c4.721-0.719,11.603-1.438,23.521-1.438
		c24.959,0,39.035,9.668,39.035,28.108c0,18.125-15.47,30.04-44.476,30.221H139.64V160.042z M139.64,256.284h18.8
		c27.567,0,49.512,9.849,49.512,34.448c0,25.635-21.945,35.124-46.905,35.124c-9.489,0-15.964,0-21.407-0.854V256.284z"/>
	<path d="M291.439,363.993h55v-89.585c0-4.408,0.36-8.817,1.035-12.322c3.689-17.046,17.403-27.929,37.778-27.929
		c6.16,0,10.746,0.719,14.748,1.573v-51.807c-4.002-0.719-6.475-0.719-11.556-0.719c-17.046,0-38.676,10.927-47.808,36.562h-1.394
		l-1.751-32.694h-47.448c0.722,15.289,1.397,32.335,1.397,58.329V363.993z"/>
	<path d="M0,0v485h485V0H0z M455,455H30V30h425V455z"/>
</g>
<g>
</g>
<g>
</g>
<g>
</g>
<g>
</g>
<g>
</g>
<g>
</g>
<g>
</g>
<g>
</g>
<g>
</g>
<g>
</g>
<g>
</g>
<g>
</g>
<g>
</g>
<g>
</g>
<g>
</g>
</svg>
